# 3ds Max Wavefront OBJ Exporter v0.97b - (c)2007 guruware
# File Created: 12.05.2020 07:17:50

mtllib Flecha.mtl

#
# object Flecha
#

v  -61.4589 2.4511 48.7818
v  -61.4589 2.5247 48.7805
v  -59.7137 3.1399 48.5120
v  -59.7137 2.8778 48.5165
v  -59.8194 2.6156 48.5210
v  -59.8194 2.3535 48.5255
v  -59.7137 2.0913 48.5300
v  -59.7137 1.8292 48.5346
v  -61.4589 2.4515 48.8125
v  -59.7137 1.8363 49.0811
v  -59.7137 2.0985 49.0765
v  -59.8194 2.3606 49.0720
v  -59.8194 2.6228 49.0675
v  -59.7137 2.8849 49.0630
v  -59.7137 3.1471 49.0584
v  -61.4589 2.5251 48.8112
v  -48.5422 2.8562 48.8661
v  -48.5416 2.8128 48.9413
v  -48.5406 2.7463 48.9971
v  -48.5393 2.6647 49.0268
v  -48.5380 2.5780 49.0268
v  -48.5368 2.4964 48.9971
v  -48.5358 2.4299 48.9413
v  -48.5351 2.3865 48.8661
v  -48.5349 2.3715 48.7806
v  -48.5351 2.3865 48.6952
v  -48.5358 2.4299 48.6200
v  -48.5368 2.4964 48.5642
v  -48.5380 2.5780 48.5345
v  -48.5393 2.6647 48.5345
v  -48.5406 2.7463 48.5642
v  -48.5416 2.8128 48.6200
v  -48.5422 2.8562 48.6952
v  -48.5425 2.8712 48.7806
v  -50.7954 2.8221 48.6952
v  -50.7956 2.8371 48.7806
v  -50.7947 2.7787 48.6200
v  -50.7937 2.7122 48.5642
v  -50.7925 2.6306 48.5345
v  -50.7911 2.5438 48.5345
v  -50.7899 2.4623 48.5642
v  -50.7889 2.3958 48.6200
v  -50.7882 2.3524 48.6952
v  -50.7880 2.3373 48.7806
v  -50.7882 2.3524 48.8661
v  -50.7889 2.3958 48.9413
v  -50.7899 2.4623 48.9971
v  -50.7911 2.5438 49.0268
v  -50.7925 2.6306 49.0268
v  -50.7937 2.7122 48.9971
v  -50.7947 2.7787 48.9413
v  -50.7954 2.8221 48.8661
v  -53.0485 2.7879 48.6952
v  -53.0487 2.8030 48.7806
v  -53.0478 2.7445 48.6200
v  -53.0468 2.6781 48.5642
v  -53.0456 2.5965 48.5345
v  -53.0443 2.5097 48.5345
v  -53.0430 2.4282 48.5642
v  -53.0420 2.3617 48.6200
v  -53.0414 2.3183 48.6952
v  -53.0411 2.3032 48.7806
v  -53.0414 2.3183 48.8661
v  -53.0420 2.3617 48.9413
v  -53.0430 2.4282 48.9971
v  -53.0443 2.5097 49.0268
v  -53.0456 2.5965 49.0268
v  -53.0468 2.6781 48.9971
v  -53.0478 2.7445 48.9413
v  -53.0485 2.7879 48.8661
v  -55.3016 2.7538 48.6952
v  -55.3018 2.7689 48.7806
v  -55.3010 2.7104 48.6200
v  -55.3000 2.6439 48.5642
v  -55.2987 2.5624 48.5345
v  -55.2974 2.4756 48.5345
v  -55.2962 2.3941 48.5642
v  -55.2952 2.3276 48.6200
v  -55.2945 2.2842 48.6952
v  -55.2943 2.2691 48.7806
v  -55.2945 2.2842 48.8661
v  -55.2952 2.3276 48.9413
v  -55.2962 2.3941 48.9971
v  -55.2974 2.4756 49.0268
v  -55.2987 2.5624 49.0268
v  -55.3000 2.6439 48.9971
v  -55.3010 2.7104 48.9413
v  -55.3016 2.7538 48.8661
v  -57.5548 2.7197 48.6952
v  -57.5550 2.7348 48.7806
v  -57.5541 2.6763 48.6200
v  -57.5531 2.6098 48.5642
v  -57.5519 2.5283 48.5345
v  -57.5505 2.4415 48.5345
v  -57.5493 2.3599 48.5642
v  -57.5483 2.2935 48.6200
v  -57.5476 2.2501 48.6952
v  -57.5474 2.2350 48.7806
v  -57.5476 2.2501 48.8661
v  -57.5483 2.2935 48.9413
v  -57.5493 2.3599 48.9971
v  -57.5505 2.4415 49.0268
v  -57.5519 2.5283 49.0268
v  -57.5531 2.6098 48.9971
v  -57.5541 2.6763 48.9413
v  -57.5548 2.7197 48.8661
v  -59.8079 2.6856 48.6952
v  -59.8081 2.7007 48.7806
v  -59.8072 2.6422 48.6200
v  -59.8062 2.5757 48.5642
v  -59.8050 2.4942 48.5345
v  -59.8037 2.4074 48.5345
v  -59.8024 2.3258 48.5642
v  -59.8014 2.2593 48.6200
v  -59.8008 2.2159 48.6952
v  -59.8005 2.2009 48.7806
v  -59.8008 2.2159 48.8661
v  -59.8014 2.2593 48.9413
v  -59.8024 2.3258 48.9971
v  -59.8037 2.4074 49.0268
v  -59.8050 2.4942 49.0268
v  -59.8062 2.5757 48.9971
v  -59.8072 2.6422 48.9413
v  -59.8079 2.6856 48.8661
v  -49.4848 3.0623 47.8988
v  -49.6780 3.0664 47.9034
v  -50.1352 2.6809 48.6087
v  -48.9712 2.6568 48.5809
v  -49.4866 3.0108 47.8695
v  -48.9729 2.6052 48.5516
v  -50.1370 2.6294 48.5794
v  -49.6798 3.0148 47.8741
v  -49.5057 2.9720 49.7566
v  -49.6989 2.9649 49.7574
v  -50.1544 2.5913 49.0446
v  -48.9905 2.6340 49.0397
v  -49.5078 3.0250 49.7301
v  -48.9926 2.6870 49.0132
v  -50.1564 2.6444 49.0181
v  -49.7009 3.0179 49.7309
v  -49.4740 1.5748 48.7046
v  -49.6673 1.5738 48.7028
v  -50.1370 2.3703 48.7157
v  -48.9724 2.3757 48.7267
v  -49.4745 1.5735 48.7639
v  -48.9730 2.3745 48.7860
v  -50.1375 2.3690 48.7750
v  -49.6678 1.5726 48.7621
# 148 vertices

vn -0.6854 -0.4876 -0.5416
vn -0.6848 0.4700 -0.5562
vn 0.4629 0.6461 -0.6074
vn 0.7319 -0.1705 -0.6595
vn 0.7323 -0.1486 0.6644
vn 0.7321 0.1715 0.6595
vn 0.7324 0.1496 -0.6644
vn 0.4630 -0.6634 -0.5872
vn -0.6853 -0.4709 0.5562
vn 0.4622 -0.6455 0.6074
vn 0.4638 0.6640 0.5872
vn -0.6848 0.4867 0.5416
vn 0.6597 0.7083 0.2536
vn 0.6616 0.5797 0.4767
vn 0.6645 0.3825 0.6425
vn 0.6680 0.1405 0.7309
vn 0.6718 -0.1172 0.7312
vn 0.6754 -0.3597 0.6433
vn 0.6783 -0.5575 0.4777
vn 0.6802 -0.6867 0.2542
vn 0.6809 -0.7315 0.0000
vn 0.6802 -0.6867 -0.2542
vn 0.6783 -0.5575 -0.4777
vn 0.6754 -0.3597 -0.6433
vn 0.6718 -0.1172 -0.7312
vn 0.6680 0.1405 -0.7309
vn 0.6645 0.3825 -0.6425
vn 0.6616 0.5797 -0.4767
vn 0.6597 0.7083 -0.2536
vn 0.6590 0.7529 0.0000
vn -0.0119 0.9396 -0.3420
vn -0.0127 0.9999 0.0000
vn -0.0097 0.7660 -0.6428
vn -0.0064 0.4999 -0.8660
vn -0.0022 0.1736 -0.9848
vn 0.0022 -0.1736 -0.9848
vn 0.0064 -0.4999 -0.8660
vn 0.0097 -0.7660 -0.6428
vn 0.0119 -0.9396 -0.3420
vn 0.0127 -0.9999 -0.0000
vn 0.0119 -0.9396 0.3420
vn 0.0097 -0.7660 0.6428
vn 0.0064 -0.4999 0.8660
vn 0.0022 -0.1736 0.9848
vn -0.0022 0.1736 0.9848
vn -0.0064 0.4999 0.8660
vn -0.0097 0.7660 0.6428
vn -0.0119 0.9396 0.3420
vn -0.6802 0.6867 -0.2542
vn -0.6809 0.7315 0.0000
vn -0.6783 0.5575 -0.4777
vn -0.6754 0.3597 -0.6433
vn -0.6718 0.1172 -0.7312
vn -0.6680 -0.1405 -0.7309
vn -0.6645 -0.3825 -0.6425
vn -0.6616 -0.5797 -0.4767
vn -0.6597 -0.7083 -0.2536
vn -0.6590 -0.7529 -0.0000
vn -0.6597 -0.7083 0.2536
vn -0.6616 -0.5797 0.4767
vn -0.6645 -0.3825 0.6425
vn -0.6680 -0.1405 0.7309
vn -0.6718 0.1172 0.7312
vn -0.6754 0.3597 0.6433
vn -0.6783 0.5575 0.4777
vn -0.6802 0.6867 0.2542
vn 0.3696 0.8758 -0.3119
vn -0.3611 0.8853 -0.2917
vn -0.7132 0.2998 0.6332
vn 0.7630 0.2766 0.5847
vn 0.3329 -0.1978 -0.9219
vn 0.7291 -0.6823 0.0411
vn -0.7473 -0.6599 0.0857
vn -0.3978 -0.1824 -0.8993
vn 0.3704 -0.2264 0.9007
vn -0.3602 -0.2530 0.8980
vn -0.7101 -0.6974 -0.1031
vn 0.7658 -0.6349 -0.0965
vn 0.3291 0.8779 0.3488
vn 0.7276 0.3503 -0.5904
vn -0.7485 0.2917 -0.5950
vn -0.4015 0.8460 0.3498
vn 0.3669 -0.6849 -0.6290
vn -0.3641 -0.6836 -0.6331
vn -0.7309 0.4021 -0.5508
vn 0.7463 0.3955 -0.5361
vn 0.3556 -0.7115 0.6055
vn 0.7358 0.3721 0.5665
vn -0.7414 0.3776 0.5541
vn -0.3754 -0.7103 0.5960
# 90 vertex normals

vt 0.7872 0.0200 0.0000
vt 0.7909 0.0240 0.0000
vt 0.7122 0.1597 0.0000
vt 0.6989 0.1453 0.0000
vt 0.6921 0.1249 0.0000
vt 0.6788 0.1105 0.0000
vt 0.6590 0.1021 0.0000
vt 0.6457 0.0877 0.0000
vt 0.7990 0.0250 0.0000
vt 0.8478 0.1741 0.0000
vt 0.8282 0.1744 0.0000
vt 0.8085 0.1658 0.0000
vt 0.7889 0.1662 0.0000
vt 0.7694 0.1754 0.0000
vt 0.7498 0.1757 0.0000
vt 0.7935 0.0251 0.0000
vt 0.8015 0.0238 0.0000
vt 0.8848 0.1567 0.0000
vt 0.5561 0.0612 0.0000
vt 0.5561 0.0808 0.0000
vt 0.5153 0.0808 0.0000
vt 0.5152 0.0612 0.0000
vt 0.0200 0.0239 0.0000
vt 0.0238 0.0200 0.0000
vt 0.0255 0.0216 0.0000
vt 0.0216 0.0255 0.0000
vt 0.5562 0.1024 0.0000
vt 0.5563 0.1220 0.0000
vt 0.5154 0.1220 0.0000
vt 0.5153 0.1024 0.0000
vt 0.5151 0.0396 0.0000
vt 0.5151 0.0200 0.0000
vt 0.5559 0.0200 0.0000
vt 0.5560 0.0396 0.0000
vt 0.9155 0.0563 0.0000
vt 0.9099 0.0530 0.0000
vt 0.9058 0.0480 0.0000
vt 0.9035 0.0419 0.0000
vt 0.9035 0.0354 0.0000
vt 0.9058 0.0293 0.0000
vt 0.9099 0.0244 0.0000
vt 0.9156 0.0211 0.0000
vt 0.9219 0.0200 0.0000
vt 0.9283 0.0211 0.0000
vt 0.9340 0.0244 0.0000
vt 0.9381 0.0293 0.0000
vt 0.9403 0.0354 0.0000
vt 0.9403 0.0419 0.0000
vt 0.9381 0.0480 0.0000
vt 0.9340 0.0530 0.0000
vt 0.9283 0.0563 0.0000
vt 0.9219 0.0574 0.0000
vt 0.0369 0.0759 0.0000
vt 0.0388 0.0697 0.0000
vt 0.2232 0.1245 0.0000
vt 0.2214 0.1308 0.0000
vt 0.0406 0.0635 0.0000
vt 0.2250 0.1182 0.0000
vt 0.0425 0.0573 0.0000
vt 0.2267 0.1120 0.0000
vt 0.0443 0.0511 0.0000
vt 0.2285 0.1057 0.0000
vt 0.0461 0.0449 0.0000
vt 0.2303 0.0995 0.0000
vt 0.0479 0.0387 0.0000
vt 0.2320 0.0932 0.0000
vt 0.0497 0.0324 0.0000
vt 0.2338 0.0870 0.0000
vt 0.0516 0.0262 0.0000
vt 0.2356 0.0808 0.0000
vt 0.0534 0.0200 0.0000
vt 0.2373 0.0745 0.0000
vt 0.0200 0.1317 0.0000
vt 0.0219 0.1255 0.0000
vt 0.2069 0.1809 0.0000
vt 0.2051 0.1872 0.0000
vt 0.0238 0.1193 0.0000
vt 0.2087 0.1746 0.0000
vt 0.0257 0.1131 0.0000
vt 0.2105 0.1683 0.0000
vt 0.0276 0.1069 0.0000
vt 0.2124 0.1621 0.0000
vt 0.0294 0.1007 0.0000
vt 0.2142 0.1558 0.0000
vt 0.0313 0.0945 0.0000
vt 0.2160 0.1495 0.0000
vt 0.0332 0.0883 0.0000
vt 0.2178 0.1433 0.0000
vt 0.0351 0.0821 0.0000
vt 0.2196 0.1370 0.0000
vt 0.4089 0.1756 0.0000
vt 0.4072 0.1819 0.0000
vt 0.4105 0.1693 0.0000
vt 0.4121 0.1630 0.0000
vt 0.4137 0.1567 0.0000
vt 0.4153 0.1504 0.0000
vt 0.4169 0.1442 0.0000
vt 0.4185 0.1379 0.0000
vt 0.4201 0.1316 0.0000
vt 0.4218 0.1254 0.0000
vt 0.3940 0.2324 0.0000
vt 0.3923 0.2387 0.0000
vt 0.3956 0.2260 0.0000
vt 0.3973 0.2197 0.0000
vt 0.3990 0.2134 0.0000
vt 0.4006 0.2071 0.0000
vt 0.4023 0.2008 0.0000
vt 0.4039 0.1945 0.0000
vt 0.4056 0.1882 0.0000
vt 0.5954 0.2212 0.0000
vt 0.5939 0.2275 0.0000
vt 0.5969 0.2148 0.0000
vt 0.5983 0.2085 0.0000
vt 0.5997 0.2022 0.0000
vt 0.6012 0.1959 0.0000
vt 0.6026 0.1896 0.0000
vt 0.6041 0.1833 0.0000
vt 0.6055 0.1770 0.0000
vt 0.6070 0.1708 0.0000
vt 0.5821 0.2781 0.0000
vt 0.5806 0.2845 0.0000
vt 0.5835 0.2718 0.0000
vt 0.5850 0.2654 0.0000
vt 0.5865 0.2591 0.0000
vt 0.5880 0.2528 0.0000
vt 0.5895 0.2464 0.0000
vt 0.5910 0.2401 0.0000
vt 0.5925 0.2338 0.0000
vt 0.7825 0.2623 0.0000
vt 0.7812 0.2686 0.0000
vt 0.7838 0.2559 0.0000
vt 0.7852 0.2496 0.0000
vt 0.7865 0.2433 0.0000
vt 0.7878 0.2370 0.0000
vt 0.7891 0.2306 0.0000
vt 0.7904 0.2243 0.0000
vt 0.7917 0.2180 0.0000
vt 0.7931 0.2117 0.0000
vt 0.7703 0.3193 0.0000
vt 0.7690 0.3257 0.0000
vt 0.7717 0.3130 0.0000
vt 0.7731 0.3066 0.0000
vt 0.7744 0.3003 0.0000
vt 0.7758 0.2939 0.0000
vt 0.7771 0.2876 0.0000
vt 0.7785 0.2813 0.0000
vt 0.7798 0.2749 0.0000
vt 0.9699 0.3001 0.0000
vt 0.9686 0.3065 0.0000
vt 0.9712 0.2938 0.0000
vt 0.9724 0.2875 0.0000
vt 0.9737 0.2812 0.0000
vt 0.9749 0.2749 0.0000
vt 0.9762 0.2685 0.0000
vt 0.9775 0.2622 0.0000
vt 0.9787 0.2559 0.0000
vt 0.9800 0.2496 0.0000
vt 0.9583 0.3572 0.0000
vt 0.9570 0.3636 0.0000
vt 0.9595 0.3509 0.0000
vt 0.9608 0.3445 0.0000
vt 0.9622 0.3382 0.0000
vt 0.9635 0.3318 0.0000
vt 0.9648 0.3255 0.0000
vt 0.9661 0.3192 0.0000
vt 0.9674 0.3128 0.0000
vt 0.9283 0.1216 0.0000
vt 0.9219 0.1227 0.0000
vt 0.9155 0.1216 0.0000
vt 0.9099 0.1183 0.0000
vt 0.9058 0.1134 0.0000
vt 0.9035 0.1073 0.0000
vt 0.9035 0.1008 0.0000
vt 0.9058 0.0947 0.0000
vt 0.9099 0.0897 0.0000
vt 0.9156 0.0864 0.0000
vt 0.9219 0.0853 0.0000
vt 0.9283 0.0864 0.0000
vt 0.9340 0.0897 0.0000
vt 0.9381 0.0947 0.0000
vt 0.9403 0.1008 0.0000
vt 0.9403 0.1073 0.0000
vt 0.9381 0.1134 0.0000
vt 0.9340 0.1183 0.0000
vt 0.1839 0.2804 0.0000
vt 0.1840 0.2639 0.0000
vt 0.2441 0.2249 0.0000
vt 0.2432 0.3241 0.0000
vt 0.1665 0.2536 0.0000
vt 0.1506 0.1816 0.0000
vt 0.2417 0.2212 0.0000
vt 0.1816 0.2602 0.0000
vt 0.2406 0.3277 0.0000
vt 0.1812 0.2839 0.0000
vt 0.5794 0.1194 0.0000
vt 0.5735 0.0203 0.0000
vt 0.5779 0.0200 0.0000
vt 0.5838 0.1191 0.0000
vt 0.2402 0.0229 0.0000
vt 0.2297 0.0355 0.0000
vt 0.2263 0.0327 0.0000
vt 0.2368 0.0200 0.0000
vt 0.1136 0.2445 0.0000
vt 0.0992 0.2524 0.0000
vt 0.0358 0.2190 0.0000
vt 0.1229 0.1713 0.0000
vt 0.0988 0.2727 0.0000
vt 0.0436 0.3217 0.0000
vt 0.0338 0.2229 0.0000
vt 0.0971 0.2563 0.0000
vt 0.1017 0.2760 0.0000
vt 0.0465 0.3250 0.0000
vt 0.4222 0.0961 0.0000
vt 0.4859 0.0200 0.0000
vt 0.4894 0.0228 0.0000
vt 0.4257 0.0989 0.0000
vt 0.2035 0.0370 0.0000
vt 0.1988 0.0212 0.0000
vt 0.2030 0.0200 0.0000
vt 0.2078 0.0358 0.0000
vt 0.3312 0.3301 0.0000
vt 0.3150 0.3329 0.0000
vt 0.2658 0.2805 0.0000
vt 0.3637 0.2641 0.0000
vt 0.3080 0.3519 0.0000
vt 0.2400 0.3802 0.0000
vt 0.2626 0.2836 0.0000
vt 0.3117 0.3359 0.0000
vt 0.3097 0.3560 0.0000
vt 0.2417 0.3843 0.0000
vt 0.3564 0.0796 0.0000
vt 0.2744 0.0237 0.0000
vt 0.2769 0.0200 0.0000
vt 0.3589 0.0759 0.0000
vt 0.1661 0.0200 0.0000
vt 0.1813 0.0263 0.0000
vt 0.1796 0.0304 0.0000
vt 0.1644 0.0241 0.0000
# 238 texture coords

o Flecha
g Flecha
usemtl wire_087225087
s 1
f 1/1/1 2/2/2 3/3/3 4/4/4 5/5/5 6/6/6 7/7/7 8/8/8 
f 9/9/9 10/10/10 11/11/6 12/12/7 13/13/4 14/14/5 15/15/11 16/16/12 
s 2
f 1/17/1 8/18/8 10/10/10 9/9/9 
s 4
f 6/19/6 5/20/5 13/21/4 12/22/7 
s 2
f 3/3/3 2/2/2 16/16/12 15/15/11 
s 4
f 2/23/2 1/24/1 9/25/9 16/26/12 
f 4/27/4 3/28/3 15/29/11 14/30/5 
f 5/20/5 4/27/4 14/30/5 13/21/4 
f 11/31/6 10/32/10 8/33/8 7/34/7 
f 12/22/7 11/31/6 7/34/7 6/19/6 
s 1
f 17/35/13 18/36/14 19/37/15 20/38/16 21/39/17 22/40/18 23/41/19 24/42/20 25/43/21 26/44/22 27/45/23 28/46/24 29/47/25 30/48/26 31/49/27 32/50/28 33/51/29 34/52/30 
s 2
f 34/53/30 33/54/29 35/55/31 36/56/32 
f 33/54/29 32/57/28 37/58/33 35/55/31 
f 32/57/28 31/59/27 38/60/34 37/58/33 
f 31/59/27 30/61/26 39/62/35 38/60/34 
f 30/61/26 29/63/25 40/64/36 39/62/35 
f 29/63/25 28/65/24 41/66/37 40/64/36 
f 28/65/24 27/67/23 42/68/38 41/66/37 
f 27/67/23 26/69/22 43/70/39 42/68/38 
f 26/69/22 25/71/21 44/72/40 43/70/39 
f 25/73/21 24/74/20 45/75/41 44/76/40 
f 24/74/20 23/77/19 46/78/42 45/75/41 
f 23/77/19 22/79/18 47/80/43 46/78/42 
f 22/79/18 21/81/17 48/82/44 47/80/43 
f 21/81/17 20/83/16 49/84/45 48/82/44 
f 20/83/16 19/85/15 50/86/46 49/84/45 
f 19/85/15 18/87/14 51/88/47 50/86/46 
f 18/87/14 17/89/13 52/90/48 51/88/47 
f 17/89/13 34/53/30 36/56/32 52/90/48 
f 36/56/32 35/55/31 53/91/31 54/92/32 
f 35/55/31 37/58/33 55/93/33 53/91/31 
f 37/58/33 38/60/34 56/94/34 55/93/33 
f 38/60/34 39/62/35 57/95/35 56/94/34 
f 39/62/35 40/64/36 58/96/36 57/95/35 
f 40/64/36 41/66/37 59/97/37 58/96/36 
f 41/66/37 42/68/38 60/98/38 59/97/37 
f 42/68/38 43/70/39 61/99/39 60/98/38 
f 43/70/39 44/72/40 62/100/40 61/99/39 
f 44/76/40 45/75/41 63/101/41 62/102/40 
f 45/75/41 46/78/42 64/103/42 63/101/41 
f 46/78/42 47/80/43 65/104/43 64/103/42 
f 47/80/43 48/82/44 66/105/44 65/104/43 
f 48/82/44 49/84/45 67/106/45 66/105/44 
f 49/84/45 50/86/46 68/107/46 67/106/45 
f 50/86/46 51/88/47 69/108/47 68/107/46 
f 51/88/47 52/90/48 70/109/48 69/108/47 
f 52/90/48 36/56/32 54/92/32 70/109/48 
f 54/92/32 53/91/31 71/110/31 72/111/32 
f 53/91/31 55/93/33 73/112/33 71/110/31 
f 55/93/33 56/94/34 74/113/34 73/112/33 
f 56/94/34 57/95/35 75/114/35 74/113/34 
f 57/95/35 58/96/36 76/115/36 75/114/35 
f 58/96/36 59/97/37 77/116/37 76/115/36 
f 59/97/37 60/98/38 78/117/38 77/116/37 
f 60/98/38 61/99/39 79/118/39 78/117/38 
f 61/99/39 62/100/40 80/119/40 79/118/39 
f 62/102/40 63/101/41 81/120/41 80/121/40 
f 63/101/41 64/103/42 82/122/42 81/120/41 
f 64/103/42 65/104/43 83/123/43 82/122/42 
f 65/104/43 66/105/44 84/124/44 83/123/43 
f 66/105/44 67/106/45 85/125/45 84/124/44 
f 67/106/45 68/107/46 86/126/46 85/125/45 
f 68/107/46 69/108/47 87/127/47 86/126/46 
f 69/108/47 70/109/48 88/128/48 87/127/47 
f 70/109/48 54/92/32 72/111/32 88/128/48 
f 72/111/32 71/110/31 89/129/31 90/130/32 
f 71/110/31 73/112/33 91/131/33 89/129/31 
f 73/112/33 74/113/34 92/132/34 91/131/33 
f 74/113/34 75/114/35 93/133/35 92/132/34 
f 75/114/35 76/115/36 94/134/36 93/133/35 
f 76/115/36 77/116/37 95/135/37 94/134/36 
f 77/116/37 78/117/38 96/136/38 95/135/37 
f 78/117/38 79/118/39 97/137/39 96/136/38 
f 79/118/39 80/119/40 98/138/40 97/137/39 
f 80/121/40 81/120/41 99/139/41 98/140/40 
f 81/120/41 82/122/42 100/141/42 99/139/41 
f 82/122/42 83/123/43 101/142/43 100/141/42 
f 83/123/43 84/124/44 102/143/44 101/142/43 
f 84/124/44 85/125/45 103/144/45 102/143/44 
f 85/125/45 86/126/46 104/145/46 103/144/45 
f 86/126/46 87/127/47 105/146/47 104/145/46 
f 87/127/47 88/128/48 106/147/48 105/146/47 
f 88/128/48 72/111/32 90/130/32 106/147/48 
f 90/130/32 89/129/31 107/148/49 108/149/50 
f 89/129/31 91/131/33 109/150/51 107/148/49 
f 91/131/33 92/132/34 110/151/52 109/150/51 
f 92/132/34 93/133/35 111/152/53 110/151/52 
f 93/133/35 94/134/36 112/153/54 111/152/53 
f 94/134/36 95/135/37 113/154/55 112/153/54 
f 95/135/37 96/136/38 114/155/56 113/154/55 
f 96/136/38 97/137/39 115/156/57 114/155/56 
f 97/137/39 98/138/40 116/157/58 115/156/57 
f 98/140/40 99/139/41 117/158/59 116/159/58 
f 99/139/41 100/141/42 118/160/60 117/158/59 
f 100/141/42 101/142/43 119/161/61 118/160/60 
f 101/142/43 102/143/44 120/162/62 119/161/61 
f 102/143/44 103/144/45 121/163/63 120/162/62 
f 103/144/45 104/145/46 122/164/64 121/163/63 
f 104/145/46 105/146/47 123/165/65 122/164/64 
f 105/146/47 106/147/48 124/166/66 123/165/65 
f 106/147/48 90/130/32 108/149/50 124/166/66 
s 1
f 124/167/66 108/168/50 107/169/49 109/170/51 110/171/52 111/172/53 112/173/54 113/174/55 114/175/56 115/176/57 116/177/58 117/178/59 118/179/60 119/180/61 120/181/62 121/182/63 122/183/64 123/184/65 
f 125/185/67 126/186/68 127/187/69 128/188/70 
f 129/189/71 130/190/72 131/191/73 132/192/74 
s 2
f 125/185/67 128/188/70 130/193/72 129/194/71 
s 4
f 128/195/70 127/196/69 131/197/73 130/198/72 
s 2
f 127/187/69 126/186/68 132/192/74 131/191/73 
s 4
f 126/199/68 125/200/67 129/201/71 132/202/74 
s 1
f 133/203/75 134/204/76 135/205/77 136/206/78 
f 137/207/79 138/208/80 139/209/81 140/210/82 
s 2
f 133/211/75 136/212/78 138/208/80 137/207/79 
s 4
f 136/213/78 135/214/77 139/215/81 138/216/80 
s 2
f 135/205/77 134/204/76 140/210/82 139/209/81 
s 4
f 134/217/76 133/218/75 137/219/79 140/220/82 
s 1
f 141/221/83 142/222/84 143/223/85 144/224/86 
f 145/225/87 146/226/88 147/227/89 148/228/90 
s 2
f 141/229/83 144/230/86 146/226/88 145/225/87 
s 4
f 144/231/86 143/232/85 147/233/89 146/234/88 
s 2
f 143/223/85 142/222/84 148/228/90 147/227/89 
s 4
f 142/235/84 141/236/83 145/237/87 148/238/90 
# 120 polygons

